<svg width="225" height="126" viewBox="0 0 225 126" fill="none" xmlns="http://www.w3.org/2000/svg">
<path d="M178.062 74.3853C158.823 75.9637 134.522 76.737 113.743 78.086C101.272 78.9713 88.3592 78.7331 75.78 78.1552C63.1753 77.5883 50.8265 76.7991 39.169 76.599C39.1856 75.795 41.174 74.6287 39.2222 74.1787C31.4213 72.8791 31.3845 71.3154 31.3739 69.6846C31.3717 68.8748 37.3382 69.6947 35.3562 68.8872C38.3449 68.8755 42.3419 68.9105 44.8453 68.7589C47.3546 68.6466 48.3668 68.3842 45.3818 67.8702C43.4009 66.9785 35.3754 67.6419 33.3665 66.4687C31.3424 65.2531 35.3869 64.0516 33.3627 62.836C31.3234 62.8012 27.2298 62.9058 25.1831 62.944C23.0994 62.1805 27.1598 60.4758 25.1005 60.5195C18.8563 59.8965 10.5183 60.7648 2.20574 61.8667C2.13811 61.4695 1.57001 61.1348 1.51439 60.7884C1.48821 60.611 1.57906 60.432 1.92942 60.2387C2.29868 60.0513 2.9369 59.8526 3.9771 59.627C22.4304 57.1578 40.9379 57.3489 58.9076 58.0519C76.9024 58.772 94.5082 59.9746 111.648 59.7638C128.747 59.5779 146.305 57.8587 164.45 57.0256C173.522 56.609 182.749 56.4189 192.09 56.8092C201.42 57.1965 210.876 58.1868 220.193 60.1036C228.636 62.1464 221.738 62.4136 215.276 62.5137C217.447 62.429 217.184 63.6747 219.351 63.6545C219.204 64.2491 217.979 64.8411 215.796 65.1479C214.696 65.3363 213.359 65.4802 211.787 65.5232C210.215 65.5663 208.413 65.4917 206.359 65.4145C208.396 65.5899 210.419 65.9114 212.446 66.1963C214.391 66.8796 212.215 67.386 212.072 68.1887C210.077 67.9041 208.085 67.6111 208.02 68.0238C207.961 68.4196 207.837 69.2281 207.778 69.6239C208.76 69.7661 210.225 69.9722 211.699 70.1812C213.17 70.3986 214.644 70.5795 215.609 70.7917C213.672 70.4121 211.692 70.198 211.627 70.5825C211.556 70.9838 211.406 71.7752 211.335 72.1765C210.355 72.1384 209.262 72.0092 208.126 71.829C206.98 71.6739 205.768 71.4985 204.562 71.3344C203.35 71.159 202.141 70.9752 200.979 70.8622C199.816 70.7772 198.713 70.7294 197.716 70.7615L197.619 71.9639C198.581 72.1283 199.667 72.2462 200.827 72.3395C201.973 72.4665 203.177 72.5827 204.377 72.6793C205.584 72.7872 206.801 72.8417 207.937 72.9658C209.071 73.0982 210.154 73.2245 211.104 73.3663C209.12 73.4895 209.058 73.8938 208.927 74.6909C207.506 74.564 206.078 74.4258 204.654 74.251C203.23 74.0763 201.813 73.8285 200.383 73.6705C197.505 73.3966 194.618 73.148 191.682 73.7029L194.584 73.8055L197.463 73.9951C196.461 74.4488 195.14 74.6069 193.596 74.6868C192.057 74.7779 190.312 74.7208 188.514 74.6097C184.877 74.4406 180.997 74.1031 178.062 74.3853Z" fill="#FDC906"/>
<path d="M49.0392 34.8265C52.9292 34.8265 56.0092 37.8493 58.2892 43.8949C63.1392 47.7712 65.5692 50.5095 65.5692 52.1187L62.1892 53.8346H61.6892C59.1792 53.8346 54.8092 51.9586 48.5792 48.2068C46.8692 47.0599 45.0892 46.4909 43.2392 46.4909H42.7392L41.7592 47.3622V52.1098C44.6892 53.8434 50.1992 56.1461 58.2792 59.0178C58.2792 59.5156 61.6792 62.3962 68.4792 67.6416C71.4092 71.7847 72.8692 74.6741 72.8692 76.3011V81.4932C70.3692 84.6582 66.7992 86.2408 62.1892 86.2408H60.7092C58.2992 86.2408 55.0592 84.9427 51.0092 82.3378V82.7734L55.8592 93.5844H55.3692L53.4392 94.8646H52.4592L48.5892 93.1487C39.8092 75.172 35.4292 64.2188 35.4292 60.298V59.0178L37.3992 56.8574H38.3492L39.8292 57.702H40.7792C36.2492 54.8303 33.9892 52.5276 33.9892 50.8029V46.4909C33.9892 42.908 36.4192 41.0321 41.2692 40.8632L50.0192 43.0503V42.6146L47.0992 36.5513C47.7592 36.5513 48.0792 36.1245 48.0792 35.271L48.5692 34.8354H49.0392V34.8265ZM41.2692 57.7109V58.5821C42.8192 58.5821 43.9492 60.6003 44.6792 64.6455C50.5892 75.2964 55.5992 80.613 59.7292 80.613C63.2892 80.3196 65.0692 79.7506 65.0692 78.8971V75.4298C65.0692 71.9269 60.0492 67.0371 50.0192 60.7425C48.6592 60.7425 45.7392 59.729 41.2692 57.7109Z" fill="#242121"/>
<path d="M83.5492 57.1774H85.3792C90.8392 59.7024 93.5692 62.9296 93.5692 66.8682V73.3405C93.5692 75.4831 90.9892 77.7769 85.8392 80.2129H85.3792V90.7127L84.4692 91.5218L84.0092 91.1128V80.6219L83.0992 79.8129H82.6392V98.7765L81.7592 99.5855L81.2992 99.1765V85.0583C80.3892 85.0583 79.9292 84.7916 79.9292 84.2493V78.5948L74.4792 74.9675L73.5692 72.1225V70.9045C75.4892 61.7472 78.8192 57.1774 83.5492 57.1774ZM80.8392 71.3046V72.9315C81.3292 74.0162 82.3892 74.5585 83.9992 74.5585C85.5192 73.1627 86.2892 71.9447 86.2892 70.9045V65.6502C86.2892 64.2543 85.8292 63.4542 84.9192 63.2408C83.6292 63.2408 82.2692 65.9258 80.8392 71.3046Z" fill="#242121"/>
<path d="M99.1492 28.452L100.939 29.6433L101.399 29.2343C102.899 29.8567 103.649 31.5903 103.649 34.4264L105.439 48.3313H106.319C107.729 46.2242 109.519 45.1752 111.699 45.1752C119.039 45.1752 123.359 49.2826 124.669 57.4886V65.4546C124.669 71.0201 122.129 77.1101 117.039 83.7425C116.379 83.7425 115.049 84.5427 113.029 86.1519V99.2832L112.119 100.066L111.699 99.6566V86.5253C109.309 86.5253 108.109 87.4499 108.109 89.308V90.1171L108.569 92.8998H107.659L106.779 92.0908V88.1256L106.319 88.5345H105.859C102.879 87.0943 101.399 86.1696 101.399 85.7518V85.3428L102.739 82.969L96.4792 30.0434C97.0692 30.0434 97.3592 29.6522 97.3592 28.852L97.8092 28.452H99.1492ZM107.199 60.6803V61.0893L109.449 80.5597H109.909C114.669 76.3722 117.049 71.7313 117.049 66.6548L117.509 64.2454V56.7151C116.499 52.4654 115.459 50.3406 114.379 50.3406H113.919C112.629 50.5184 110.389 53.9679 107.199 60.6803Z" fill="#242121"/>
<path d="M133.559 47.6112H134.469L136.329 48.8292L136.789 48.4202C136.789 48.9804 137.249 49.2649 138.159 49.2649L138.619 49.6738V51.3008L138.159 54.1724C145.849 58.9822 149.689 62.9563 149.689 66.0769V67.7039C149.689 70.9934 148.309 73.1805 145.539 74.2651C142.469 74.5318 140.929 74.9408 140.929 75.4831C145.099 79.5283 149.709 83.3157 154.749 86.8631L155.209 90.0192L153.659 88.2678V87.8588L155.489 85.3872H156.399C160.519 87.0142 161.969 87.7343 160.719 87.5476L167.719 97.0783L168.179 98.7053C166.329 99.3543 165.399 99.9055 165.399 100.359C160.989 98.9809 150.829 91.3795 134.919 77.5458V77.9547C138.319 85.1205 140.019 89.228 140.019 90.2682C139.179 90.2682 138.249 90.6771 137.239 91.4862H136.779C133.709 90.2326 131.709 87.9122 130.769 84.516C128.309 81.182 127.079 76.9412 127.079 71.7936C127.689 63.6053 128.619 58.1376 129.859 55.3816C129.859 54.5725 129.089 54.1636 127.539 54.1636L126.629 52.1009C127.239 52.1009 127.539 51.5586 127.539 50.474L127.999 50.065H129.409L130.779 50.874H131.239C131.989 48.7047 132.759 47.6112 133.559 47.6112ZM136.339 59.9246L134.479 69.7665L134.939 70.1755H135.399C140.019 69.6331 142.329 68.9486 142.329 68.1129V64.4233C139.819 61.1515 137.829 59.5157 136.349 59.5157V59.9246H136.339Z" fill="#242121"/>
<path d="M165.289 41.1743C169.599 41.1743 174.979 44.1527 181.429 50.1093C184.359 53.5856 187.709 61.6671 191.479 74.3362V74.8074C189.489 75.492 188.489 76.0876 188.489 76.5855C180.799 73.6249 172.899 69.7397 164.789 64.9299H164.259C166.159 71.4112 170.369 76.3366 176.879 79.715H177.859L181.899 77.4923H183.409C184.089 77.4923 184.429 77.928 184.429 78.8081L184.919 78.3992H185.449C187.109 79.5461 187.949 80.7285 187.949 81.9643L181.899 85.5561H178.879C169.599 82.7822 162.869 77.8568 158.699 70.7711C156.359 66.4591 155.179 61.9694 155.179 57.3018C157.199 46.5531 159.879 41.1743 163.229 41.1743H165.289ZM166.279 46.9888L164.279 56.8662V58.2087L180.939 68.0505H181.919L175.379 52.8299C171.839 48.9358 168.979 46.9888 166.799 46.9888H166.279Z" fill="#242121"/>
</svg>
