<svg width="127" height="47" viewBox="0 0 127 47" fill="none" xmlns="http://www.w3.org/2000/svg">
<path d="M127 25.8754C126.756 26.5984 126.486 27.308 125.921 27.8536C125.799 27.97 125.881 28.0902 125.915 28.2027C126.284 29.4293 126.13 30.5624 125.386 31.6269C124.891 32.3346 124.438 33.0748 123.991 33.8149C123.003 35.4536 121.522 36.3444 119.681 36.6821C118.059 36.9796 116.433 37.0178 114.817 36.6382C114.49 36.5619 114.553 36.7164 114.591 36.9129C114.899 38.4619 115.154 40.0185 115.289 41.5904C115.425 43.1508 114.469 44.591 112.988 45.0965C112.819 45.1538 112.649 45.1957 112.491 45.3045C111.197 46.1953 109.811 46.2201 108.441 45.5773C106.996 44.8982 105.92 43.7917 105.237 42.3362C105.121 42.0882 104.984 42.0329 104.732 42.0272C103.318 41.9967 101.921 41.8383 100.579 41.3538C97.9673 40.4114 96.4883 38.4676 95.7402 35.877C95.6603 35.5985 95.6622 35.2075 95.4756 35.0701C95.2758 34.9213 94.935 35.1693 94.6533 35.2304C93.0543 35.5795 91.4649 35.5604 89.8926 35.1026C89.5309 34.9976 89.4015 35.0606 89.2777 35.4192C88.6343 37.2734 87.8177 39.0437 86.5233 40.5488C85.1985 42.0901 83.5652 42.9982 81.479 42.8933C79.8591 42.8131 78.5095 42.0997 77.3255 41.0333C76.7106 40.4801 76.1662 39.8621 75.6922 39.1848C75.5552 38.9884 75.4619 38.9426 75.2392 39.0933C74.6757 39.471 74.0457 39.6904 73.3623 39.7342C73.2367 39.7419 73.1148 39.7457 73.0159 39.8468C71.6777 41.2012 69.9702 41.4893 68.1733 41.5446C65.4094 41.6285 63.0452 40.6575 60.9855 38.8625C60.8904 38.7804 60.799 38.6946 60.7019 38.6145C60.6867 38.6011 60.6505 38.6126 60.582 38.6126C60.6581 39.0513 60.7305 39.4863 60.8123 39.9193C61.0179 41.0009 60.7133 41.9204 60.0947 42.8284C59.379 43.8814 58.3244 44.4155 57.2718 44.9859C56.9386 45.1652 56.5694 45.2625 56.1886 45.2759C55.1265 45.3102 54.0643 45.3331 53.0497 44.9401C51.5497 44.3602 50.7046 43.1126 50.7217 41.5102C50.7274 40.9723 50.5428 40.4668 50.48 39.9422C50.4571 39.759 50.3715 39.7991 50.2515 39.8525C48.9076 40.4534 47.5409 40.3103 46.2065 39.8735C44.9235 39.4519 44.0156 38.5725 43.5245 37.2944C43.4654 37.1418 43.4198 37.0388 43.218 37.0273C41.4705 36.932 39.824 36.4169 38.2003 35.8065C37.9319 35.7054 37.732 35.631 37.7073 36.0373C37.6996 36.1708 37.6216 36.3005 37.5683 36.4303C37.4122 36.7984 35.7047 38.9559 35.4021 39.2192C33.8983 40.5278 31.1534 40.2722 29.642 39.0437C28.7378 38.3093 28.1078 37.386 27.7213 36.3024C27.5462 35.8122 27.2797 35.3734 27.0798 34.8984C27.0132 34.7401 26.939 34.7268 26.7696 34.7783C23.5926 35.7588 20.5051 35.6729 17.5603 33.9732C17.4175 33.8912 17.309 33.7806 17.132 33.9599C15.9175 35.1922 14.389 35.8465 12.752 36.2795C12.4036 36.3711 12.2856 36.4989 12.3408 36.8652C12.4645 37.6931 12.5388 38.5286 12.6454 39.3604C12.8491 40.9303 12.3237 42.155 10.9588 42.9924C10.5667 43.2328 10.1784 43.4789 9.78627 43.7212C8.40621 44.5681 7.01283 44.5624 5.63848 43.7269C4.24509 42.8799 3.1163 41.7907 2.59283 40.1883C2.45387 39.7609 2.38915 39.3222 2.37011 38.872C2.27113 36.581 2.01035 34.309 1.54398 32.0618C1.48878 31.7967 1.37076 31.583 1.19564 31.3694C0.137272 30.0664 -0.197749 28.5728 0.108719 26.9341C0.200089 26.4458 0.453258 26.0185 0.784473 25.6522C0.990054 25.4252 1.04526 25.1887 1.02812 24.893C0.971019 23.9583 0.97673 23.0178 0.88536 22.0888C0.738788 20.5951 1.16137 19.1797 1.41264 17.7413C1.62583 16.5186 1.87139 15.3015 2.11123 14.0825C2.15311 13.8689 2.07316 13.7086 1.97608 13.5331C1.30985 12.3199 0.69691 11.08 0.483715 9.69502C0.30859 8.5619 0.468487 7.49554 1.2299 6.57989C1.30033 6.49595 1.35173 6.39485 1.40883 6.29947C1.47355 6.19264 1.54017 6.08582 1.59918 5.97517C2.39867 4.50631 5.90307 3.51435 7.50394 4.98321C7.56485 5.04044 7.62576 5.11102 7.7 5.13964C8.84783 5.56504 9.43602 6.52075 10.0147 7.5089C11.1606 9.46611 12.3427 11.41 13.5096 13.3596C13.58 13.4759 13.6523 13.5904 13.7361 13.7258C14.8382 11.7991 16.5647 10.7576 18.6168 10.2406C20.526 9.75988 22.3819 10.1509 24.1941 10.8129C25.5228 11.2993 26.7505 11.9327 27.6128 13.1135C27.6604 13.1783 27.7194 13.3424 27.826 13.2375C28.1363 12.9322 28.5932 12.8063 28.7702 12.3313C29.3298 10.8224 30.3444 9.73699 31.9053 9.25246C33.43 8.77937 34.93 8.77746 36.3253 9.68549C37.2142 10.2635 37.8139 11.0647 37.8976 12.131C37.9452 12.7415 38.225 13.0143 38.7961 13.165C38.8741 12.5507 39.192 12.028 39.4604 11.4882C40.14 10.1204 41.1736 9.23147 42.7783 9.19141C42.9591 9.1876 43.0847 9.13037 43.2199 9.01019C44.3848 7.98008 45.6964 7.81221 47.1088 8.4112C47.3791 8.52566 47.4476 8.5123 47.4781 8.20327C47.7522 5.45439 49.1037 3.27208 51.1576 1.52471C52.6062 0.292387 54.3517 -0.310419 56.2248 0.1703C58.2197 0.681541 59.8301 1.91386 60.9208 3.67077C62.3256 5.93321 63.2679 8.38258 63.4678 11.0742C63.4716 11.1143 63.483 11.1524 63.5001 11.244C63.8789 11.0361 64.2387 10.8339 64.6023 10.6393C65.3637 10.233 66.1194 9.8133 66.9893 9.66259C67.8421 9.51571 68.6339 9.67976 69.3573 10.1223C69.7132 10.3398 70.0711 10.5439 70.448 10.7232C70.9962 10.9846 71.4493 11.3814 71.8509 11.8335C71.9651 11.9632 72.0336 12.0452 72.1897 11.8525C74.1237 9.49472 77.2703 8.94152 80.2873 10.6565C80.5786 10.8224 80.7708 10.8148 81.0583 10.6412C82.4288 9.81902 84.734 9.60727 86.1007 11.1563C86.1978 11.2669 86.333 11.3051 86.4586 11.3642C87.5093 11.8621 88.1832 12.6728 88.4345 13.8097C88.4916 14.0654 88.5563 14.1169 88.8095 14.0596C89.746 13.8479 90.6997 13.9109 91.6457 13.9719C92.1102 14.0024 92.5328 14.1932 92.9401 14.4202C94.1755 15.1088 95.3252 15.9196 96.3627 16.8944C96.612 16.5281 96.8405 16.1618 97.0974 15.8185C98.0911 14.5041 99.3931 13.8078 101.062 13.8994C101.415 13.9185 101.496 13.8269 101.485 13.4721C101.439 12.091 101.361 10.708 101.436 9.32495C101.462 8.82515 101.54 8.32536 101.62 7.82938C101.717 7.21131 101.97 6.65619 102.384 6.17929C102.722 5.78823 103.057 5.39526 103.4 5.00801C104.573 3.68413 106.725 3.34648 108.258 4.24878C108.439 4.35561 108.623 4.44717 108.817 4.52729C110.814 5.33803 111.987 7.26663 111.791 9.42796C111.776 9.60155 111.806 9.75988 111.827 9.92585C111.913 10.603 111.985 11.2822 112.006 11.9975C112.594 11.8449 113.152 11.677 113.734 11.6103C115.636 11.3947 117.404 11.8831 119.156 12.5584C120.587 13.1097 121.63 14.0844 122.485 15.3149C124 17.4934 125.058 19.9046 126.075 22.3387C126.442 23.2181 126.821 24.0918 126.998 25.0361C127 25.3165 127 25.595 127 25.8754ZM105.01 18.3709C104.942 18.3403 104.843 18.3003 104.746 18.2526C103.602 17.6879 102.408 17.3713 101.118 17.3865C100.554 17.3942 100.154 17.5868 99.8347 18.0237C99.3836 18.6398 99.0771 19.3304 98.8487 20.0496C97.9121 22.972 97.5486 25.9536 97.9578 29.0115C98.0473 29.6754 98.1177 30.3431 98.2776 30.9955C98.3614 31.3388 98.5955 31.6116 98.6184 32.0008C98.6926 33.2712 98.8525 34.5322 99.3436 35.7263C99.8081 36.8576 100.581 37.6912 101.753 38.0765C103.657 38.7022 105.532 38.8014 107.306 37.6511C107.376 37.6053 107.456 37.5748 107.523 37.5252C107.708 37.3898 107.774 37.4699 107.839 37.6588C107.976 38.0574 108.069 38.4466 108.039 38.8815C107.94 40.3122 108.422 41.4854 109.655 42.2962C110.009 42.5289 110.335 42.5709 110.677 42.2637C110.917 42.0501 111.201 41.8689 111.522 41.825C111.802 41.7868 111.804 41.6667 111.777 41.4339C111.505 39.1124 111.104 36.8194 110.415 34.5818C110.378 34.4654 110.321 34.3529 110.405 34.2231C110.711 33.7501 111.02 33.2636 111.553 33.0347C111.876 32.8954 111.909 32.6818 111.882 32.409C111.846 32.0427 111.652 31.7547 111.376 31.522C111.085 31.2778 110.761 31.0451 110.396 30.9764C109.705 30.8467 109.526 30.3869 109.491 29.7879C109.489 29.7593 109.486 29.7326 109.482 29.704C109.149 27.4225 108.956 25.1238 108.745 22.829C108.587 21.1178 108.454 19.4124 108.522 17.6841C108.616 15.3397 108.654 12.9876 108.397 10.6469C108.334 10.0689 108.203 9.50617 108.309 8.90909C108.387 8.47987 108.144 8.13078 107.78 7.8866C107.687 7.82556 107.584 7.74735 107.487 7.86562C107.327 8.05829 107.226 7.91713 107.12 7.8103C106.259 6.92707 106.177 7.15599 105.551 7.9114C105.368 8.13269 105.088 8.29483 105.05 8.61341C104.978 9.25055 104.866 9.88197 104.89 10.5306C104.946 11.9975 104.986 13.4645 105.009 14.9314C105.026 16.076 105.01 17.2187 105.01 18.3709ZM67.5108 21.5909C67.1701 21.5146 66.9017 21.444 66.6295 21.3963C65.1714 21.1426 63.9132 21.4364 63.0033 22.7088C62.6112 23.2563 62.2952 23.8438 62.042 24.4657C61.3967 26.0528 61.0465 27.7182 60.7914 29.4045C60.6657 30.2286 60.4944 31.0451 60.6696 31.8959C61.4538 35.7359 65.0229 38.3989 68.908 38.0231C69.7151 37.9449 70.3814 37.6187 70.8763 36.9701C71.0704 36.7145 71.2894 36.4684 71.4283 36.1842C71.6187 35.7988 71.7919 35.7778 72.1612 36.001C73.0368 36.5275 73.5888 36.2662 73.7982 35.2704C73.9676 34.4673 73.9048 33.6566 73.8153 32.8497C73.5679 30.5815 73.0311 28.3706 72.4715 26.1654C71.6758 23.0273 70.705 19.9389 69.8274 16.8257C69.7608 16.5911 69.7266 16.364 69.8027 16.1275C70.014 15.4656 69.7741 14.8971 69.4277 14.3553C69.224 14.0348 68.9651 13.8174 68.5502 13.8136C68.2247 13.8117 67.8478 13.7392 67.7221 13.4225C67.568 13.0391 67.3985 13.1612 67.1663 13.2813C64.7203 14.5404 62.3599 15.9425 60.1213 17.543C59.7692 17.7948 59.4285 18.0618 59.1315 18.3804C58.7946 18.7428 58.7889 18.8993 59.1163 19.277C59.4684 19.6814 59.9196 19.9656 60.3441 20.2823C60.7114 20.557 61.0541 20.5703 61.4614 20.3548C62.7901 19.6471 64.1302 18.9622 65.4665 18.2698C65.7253 18.1343 65.9842 17.9989 66.2488 17.8692C66.4144 17.7871 66.5686 17.7585 66.6276 18.0065C66.915 19.1797 67.2063 20.3548 67.5108 21.5909ZM8.31674 32.3422C8.90494 32.5578 9.43031 32.7409 9.94997 32.945C10.1898 33.0385 10.4259 33.0976 10.6828 33.0786C12.0953 32.9775 13.3744 32.5177 14.4842 31.625C14.7926 31.377 15.0324 31.0565 15.1352 30.6673C15.3884 29.7059 15.5635 28.7387 15.4036 27.7296C15.0819 25.6942 14.4575 23.7408 13.797 21.7988C13.4391 20.7439 13.1879 19.6318 12.6263 18.6704C10.6752 15.3358 8.6689 12.0299 6.69303 8.70879C6.57311 8.50658 6.43606 8.43409 6.20573 8.40738C5.85358 8.36923 5.45383 8.34062 5.38911 7.85417C5.3796 7.78932 5.35104 7.76833 5.28442 7.7607C4.98557 7.72064 4.52872 8.00488 4.42783 8.30056C4.36311 8.48559 4.30981 8.70497 4.12136 8.78128C3.86819 8.88238 3.88913 9.04834 3.9253 9.25055C3.99383 9.62444 4.12327 9.97544 4.27174 10.3245C4.66577 11.2516 5.1645 12.1234 5.67274 12.9895C5.76792 13.1535 5.82122 13.2985 5.78314 13.4969C5.46145 15.1413 5.14927 16.7875 4.8409 18.4319C4.58011 19.8149 4.2508 21.1865 4.40118 22.6191C4.49445 23.5062 4.44306 24.4104 4.54775 25.2955C4.65054 26.1749 4.44877 26.8769 3.81489 27.516C3.26668 28.0673 3.3866 28.6853 4.01857 29.1432C4.17085 29.2519 4.27555 29.4045 4.34788 29.5705C4.47923 29.8776 4.6258 30.1847 4.70765 30.5052C5.40244 33.2064 5.69939 35.9667 5.87071 38.7442C5.89545 39.1543 6.0287 39.5034 6.28187 39.8163C6.5674 40.1673 6.92907 40.4267 7.29836 40.6804C7.55343 40.8559 7.77234 40.8502 8.0236 40.6728C8.30723 40.4725 8.60608 40.2855 8.91445 40.1253C9.1524 40.0013 9.20189 39.8411 9.16953 39.5874C9.03057 38.5076 8.91255 37.4241 8.78692 36.3425C8.62892 35.0262 8.47664 33.71 8.31674 32.3422ZM55.117 6.92517C55.4824 7.30287 55.7128 7.71683 55.8689 8.19373C56.2591 9.38599 56.6836 10.5687 57.1061 11.7514C57.1937 11.9975 57.2166 12.2341 57.1785 12.4878C56.7464 15.3893 56.3162 18.2907 55.8917 21.1922C55.8708 21.3296 55.728 21.5528 56.0478 21.5413C56.2458 21.5337 56.497 21.6615 56.5313 21.2781C56.5808 20.7363 56.6855 20.2003 56.7654 19.6604C57.1004 17.3942 57.4355 15.1279 57.7667 12.8617C57.7914 12.6938 57.8124 12.5603 58.0332 12.5793C58.2863 12.6022 58.1759 12.7739 58.1607 12.8884C58.075 13.4969 57.978 14.1035 57.8885 14.7121C57.8143 15.2099 57.7476 15.7078 57.6734 16.2057C57.6544 16.3392 57.6544 16.4728 57.7762 16.5434C57.9094 16.6197 57.9608 16.4632 58.0446 16.406C58.2445 16.2706 58.3092 16.0665 58.3415 15.8356C58.4862 14.7979 58.6461 13.7621 58.7851 12.7243C58.8174 12.4763 58.905 12.3352 59.1524 12.2398C60.0205 11.904 60.0167 11.8926 59.9576 10.9617C59.9462 10.7938 59.9291 10.6278 59.9005 10.4619C59.6283 8.84614 58.9964 7.35819 58.2483 5.91795C57.8276 5.10912 57.1594 4.52157 56.4095 4.00651C55.4577 3.3522 54.5554 3.46094 53.6455 4.05039C52.8004 4.59788 52.2217 5.3819 51.7458 6.24605C51.4584 6.76683 51.1424 7.27617 51.0567 7.89423C50.8055 9.69312 50.5314 11.4882 50.2591 13.2832C50.0326 14.7769 49.808 16.2629 49.9717 17.7852C50.1468 19.4124 50.341 21.0377 50.7141 22.6267C50.9235 23.5233 50.9482 24.315 50.2991 25.0303C50.2706 25.0609 50.2515 25.099 50.2325 25.1372C50.0612 25.4615 50.0041 25.7514 50.3924 25.9861C50.6418 26.1368 50.8416 26.3676 51.0891 26.5202C51.4546 26.7434 51.5878 27.06 51.664 27.4702C52.3074 30.944 52.985 34.4101 53.6227 37.8858C53.8511 39.1276 54.1899 40.3523 54.2604 41.6228C54.268 41.7563 54.3689 41.7258 54.4393 41.7353C55.1322 41.8212 55.8022 41.8937 56.4456 41.4492C56.7426 41.2451 56.912 40.9627 57.1652 40.7472C57.3403 40.5984 57.3764 40.4496 57.3365 40.2379C56.735 37.0979 56.1392 33.9561 55.5434 30.8142C55.3435 29.765 55.1493 28.7178 54.9418 27.6133C56.004 27.7964 57.0224 27.9013 57.9989 28.1626C58.8688 28.3954 59.5522 28.2046 60.2432 27.6896C60.5382 27.4683 60.5972 27.2584 60.5192 26.9532C60.4507 26.69 60.2984 26.4725 60.1023 26.2875C59.7311 25.9346 59.28 25.7152 58.806 25.5397C57.5002 25.0532 56.1315 24.8548 54.7553 24.7232C54.4241 24.6908 54.3156 24.5706 54.2528 24.2673C53.9577 22.8309 53.6493 21.3963 53.4419 19.9446C53.2382 18.5197 53.0174 17.0908 53.2248 15.6468C53.5542 13.3386 53.912 11.0323 54.2356 8.72214C54.3365 8.02586 54.6297 7.45167 55.117 6.92517ZM81.5532 16.6178C81.5075 16.6006 81.4733 16.6006 81.4599 16.5834C81.3857 16.4823 81.3153 16.3793 81.2429 16.2763C80.5767 15.3168 79.8248 14.4374 78.8216 13.8136C76.7772 12.5412 75.0412 13.1325 74.1884 15.3854C73.6916 16.6998 73.5584 18.0771 73.5565 19.4639C73.5527 23.6435 74.3864 27.6781 75.757 31.6078C76.4594 33.6184 77.3121 35.5585 78.5856 37.2849C79.0862 37.964 79.6516 38.582 80.3901 39.0113C81.4161 39.6083 82.4269 39.5187 83.3406 38.7594C83.9288 38.2692 84.3666 37.6568 84.7454 37.0006C85.4269 35.8217 85.8971 34.5532 86.3196 33.2636C86.4396 32.9012 86.4719 32.5273 86.5252 32.1553C86.5519 31.9626 86.491 31.8482 86.3349 31.7375C85.7657 31.3331 85.208 30.9134 84.6445 30.5014C84.557 30.4365 84.4618 30.3297 84.3514 30.4308C83.8603 30.8829 83.2055 31.1423 82.9447 31.8634C82.5221 33.0309 82.0595 34.1869 81.3895 35.2418C81.1287 35.6519 81.0659 35.6443 80.7918 35.2571C79.1833 32.9813 78.2296 30.4384 77.7157 27.7163C77.0761 24.3169 77.1446 20.9042 77.5501 17.4876C77.5615 17.3846 77.5291 17.2473 77.6852 17.2187C77.8432 17.19 77.9003 17.3179 77.9727 17.419C78.6294 18.3499 79.4174 19.1568 80.2588 19.9198C80.5481 20.1812 80.826 20.4597 81.0887 20.7477C81.4028 21.0911 81.5951 21.5108 81.5304 21.9743C81.3476 23.2772 82.0005 24.088 83.0341 24.7194C83.3368 24.9044 83.5595 24.9388 83.8317 24.6717C84.1001 24.4085 84.4066 24.1834 84.7112 23.9621C84.932 23.8018 85.0233 23.6187 85.031 23.3364C85.0881 21.3525 85.1528 19.3685 85.246 17.3865C85.286 16.5262 85.1413 15.6868 85.0747 14.8399C85.069 14.7617 85.069 14.5747 84.9396 14.6701C84.7074 14.8418 84.6445 14.6396 84.5417 14.5385C84.2829 14.2847 84.0183 14.031 83.7898 13.7506C83.5824 13.495 83.3482 13.495 83.0817 13.5942C82.5697 13.7811 82.2899 14.1894 82.071 14.6567C81.7816 15.2748 81.6731 15.9463 81.5532 16.6178ZM29.9789 18.2354C30.0989 18.1725 30.2054 18.1095 30.3178 18.0561C30.4662 17.9836 30.6223 17.8711 30.7841 17.9951C30.9459 18.1191 30.8774 18.2984 30.8393 18.4605C30.7689 18.76 30.687 19.0557 30.6223 19.3552C30.1103 21.7645 29.878 24.212 29.6344 26.6594C29.484 28.1646 29.4802 29.6658 29.6096 31.1786C29.7448 32.7447 30.6337 34.019 31.121 35.4459C31.3704 36.1765 31.9472 36.5848 32.7562 36.5962C33.0189 36.6 33.1978 36.5027 33.3368 36.2681C33.529 35.9457 33.7079 35.5833 33.9859 35.3505C34.3837 35.0148 34.359 34.6714 34.2409 34.2422C33.8203 32.7333 33.234 31.2854 32.6667 29.8318C32.6058 29.6754 32.4706 29.519 32.5811 29.3206C33.5918 29.8337 34.5912 30.3564 35.6058 30.8505C37.574 31.81 39.5613 32.7295 41.6894 33.2903C42.4471 33.4887 43.2123 33.6528 44.0041 33.5459C44.1507 33.5269 44.2916 33.523 44.3639 33.3266C44.5181 32.9012 44.8189 32.5616 45.0949 32.2106C45.5003 31.6975 45.5003 31.2625 45.0873 30.7341C44.3487 29.786 43.5225 28.8933 42.9077 27.8708C42.5727 27.3138 42.2358 27.4893 41.8436 27.5064C41.6076 27.516 41.3735 27.5637 41.1393 27.6075C40.831 27.6648 40.6063 27.8269 40.5016 28.1378C40.4426 28.3095 40.3494 28.4698 40.3018 28.6434C40.2409 28.8646 40.1228 28.8761 39.9287 28.8151C38.2441 28.2809 36.6565 27.5446 35.1756 26.5755C34.9262 26.4134 34.9909 26.2817 35.1147 26.1081C35.4706 25.616 35.9179 25.2135 36.3843 24.8358C36.8145 24.4848 37.1419 24.0613 37.4313 23.5958C38.3012 22.1975 38.5543 20.6562 38.6191 19.0366C38.6762 17.6364 38.0746 16.7189 36.8868 16.1027C36.1502 15.7193 35.3602 15.4865 34.5493 15.3397C34.2409 15.2843 34.2162 15.1737 34.2562 14.9009C34.3551 14.2256 34.4789 13.5503 34.4655 12.8617C34.4617 12.6213 34.4446 12.4801 34.1324 12.606C33.8964 12.7014 33.6185 12.7529 33.3672 12.73C32.6686 12.6671 32.4078 12.7892 32.109 13.4339C31.8482 13.9929 31.6959 14.59 31.5531 15.187C31.496 15.4236 31.3818 15.5037 31.142 15.4904C30.4757 15.4541 30.0969 15.7956 30.0189 16.4766C29.9942 16.6845 29.9884 16.9173 29.8571 17.0775C29.6439 17.3369 29.6896 17.5773 29.8171 17.8405C29.8818 17.9588 29.9237 18.0923 29.9789 18.2354ZM26.9066 27.1344C26.6915 26.7148 26.6725 26.7167 26.2861 26.9456C26.0386 27.0906 25.8445 27.2718 25.6922 27.516C25.4409 27.9185 25.1363 28.2905 24.9155 28.7082C24.6167 29.2729 24.1903 29.3835 23.5945 29.2881C21.472 28.9486 20.1358 27.6667 19.2868 25.7781C19.0527 25.2574 19.0698 25.2211 19.6275 25.286C21.4892 25.5072 23.3565 25.5912 25.2315 25.5301C26.111 25.5015 26.9885 25.4348 27.8622 25.3241C27.984 25.3089 28.1363 25.3508 28.1953 25.1505C28.3229 24.727 28.6065 24.3875 28.8958 24.0708C29.1071 23.84 29.1319 23.6359 29.01 23.3574C28.4447 22.0678 27.9174 20.7592 27.333 19.4792C26.7258 18.1458 26.0634 16.8352 25.1973 15.6449C24.9022 15.2386 24.611 14.8151 24.1465 14.5823C23.347 14.1798 22.5114 13.8746 21.6377 13.6667C19.5019 13.1593 16.7741 14.1264 16.2316 16.963C15.9309 18.533 15.7158 20.1049 15.6282 21.6958C15.5673 22.7946 15.4588 23.8934 15.6967 24.9941C16.0451 26.6098 16.5552 28.1569 17.6041 29.456C19.342 31.6059 21.651 32.1763 24.295 31.8005C25.4504 31.6364 26.3261 31.1271 26.8914 30.0798C27.215 29.4789 27.6166 28.92 27.9821 28.342C28.3704 27.7296 28.2315 27.2623 27.5843 26.9361C27.2873 26.7834 27.0513 26.7644 26.9066 27.1344ZM121.24 28.7082C121.139 28.2542 120.956 28.2447 120.673 28.4297C120.412 28.6014 120.187 28.7903 120.022 29.0611C119.782 29.4541 119.479 29.8127 119.266 30.2171C118.967 30.7837 118.537 30.8944 117.943 30.799C115.821 30.4575 114.484 29.1737 113.633 27.2832C113.409 26.7854 113.441 26.73 113.993 26.7968C115.87 27.0219 117.751 27.1077 119.639 27.0352C120.475 27.0028 121.31 26.9208 122.144 26.8464C122.291 26.833 122.479 26.8712 122.551 26.6404C122.685 26.2188 122.968 25.8792 123.26 25.5645C123.467 25.3413 123.465 25.1448 123.36 24.8854C122.73 23.3326 122.085 21.7874 121.347 20.2823C120.755 19.0786 120.14 17.8863 119.296 16.8314C119.079 16.5586 118.86 16.2782 118.541 16.118C117.551 15.6182 116.521 15.2424 115.417 15.084C113.649 14.8284 111.166 15.8032 110.698 18.1095C110.685 18.1782 110.662 18.245 110.645 18.3117C110.196 20.0381 110.078 21.8084 109.954 23.5786C109.866 24.8434 109.897 26.0872 110.236 27.3176C110.607 28.6644 111.107 29.952 112.008 31.0317C113.753 33.1282 116.041 33.6814 118.649 33.3113C119.805 33.1472 120.68 32.636 121.246 31.5868C121.569 30.9859 121.971 30.427 122.338 29.849C122.725 29.2385 122.561 28.7273 121.893 28.4221C121.623 28.3 121.406 28.2981 121.24 28.7082ZM90.555 17.4247C89.2244 17.3255 88.3107 17.9168 87.6388 18.9565C87.3799 19.3571 87.1762 19.7844 87.0106 20.2308C86.3863 21.8961 86.1636 23.6378 86.0113 25.3947C85.9542 26.049 85.8685 26.7129 86.1083 27.3424C86.5614 28.5384 87.2429 29.5953 88.2441 30.3984C90.1971 31.9645 92.3672 32.4739 94.7409 31.4991C96.3208 30.8486 96.9889 29.5647 96.7738 27.8689C96.6368 26.7892 96.4921 25.7075 96.4122 24.6202C96.2732 22.7374 95.6184 21.0949 94.2992 19.7291C93.5664 18.9698 92.7288 18.3499 91.838 17.789C91.423 17.5296 91.008 17.3293 90.555 17.4247ZM48.0739 36.724C48.8163 36.7507 49.5111 35.9801 49.4235 35.3219C48.8753 31.211 48.3214 27.102 47.7693 22.9911C47.7522 22.8576 47.6684 22.7107 47.7788 22.5905C47.9958 22.3559 47.895 22.1155 47.7941 21.8904C47.52 21.2762 46.9965 20.8984 46.4502 20.5513C46.3778 20.5055 46.2522 20.4978 46.1685 20.5246C44.6932 20.9957 43.2142 21.4612 41.9598 22.4226C41.5886 22.7069 41.2821 23.0445 41.1431 23.5081C41.0708 23.7484 41.0651 23.9812 41.225 24.1853C41.6571 24.7328 42.2681 25.0246 42.8887 25.2669C43.2199 25.3966 43.4978 25.0609 43.8062 24.954C43.9775 24.8949 44.1374 24.8052 44.3011 24.7308C44.8645 24.4714 44.8798 24.479 45.0263 25.0857C45.0625 25.2345 45.0968 25.3852 45.1177 25.5359C45.3423 27.2107 45.5555 28.8856 45.7878 30.5586C46.0314 32.3289 46.2884 34.0972 46.7034 35.837C46.8252 36.3482 47.1507 36.5867 47.6228 36.6782C47.8055 36.7164 47.9882 36.7164 48.0739 36.724ZM43.2808 12.6995C42.8868 12.6328 42.6583 12.7529 42.6545 13.1917C42.6526 13.3538 42.6279 13.5618 42.4775 13.6438C42.2472 13.7697 42.3309 13.8956 42.4185 14.0444C42.8849 14.8494 43.1476 15.7212 43.3055 16.6349C43.3836 17.087 43.513 17.5296 43.6253 17.976C43.6539 18.0885 43.7338 18.1477 43.7396 18.1267C43.8633 17.7547 43.9623 18.1229 44.0003 18.1572C44.4001 18.5025 44.8531 18.781 45.3633 18.8439C45.744 18.8897 45.9819 18.4662 46.3112 18.3041C46.5891 18.1667 46.652 17.9645 46.612 17.6593C46.4578 16.4842 46.3417 15.3034 46.1913 14.1283C46.098 13.3958 45.9724 12.6671 45.8468 11.9403C45.8258 11.8163 45.8201 11.6236 45.6526 11.6084C45.5117 11.5969 45.4832 11.7705 45.4261 11.8773C45.3385 12.0357 45.2376 12.1902 45.1748 12.3581C44.9826 12.8693 44.4686 12.8846 44.0746 13.062C43.9033 13.1383 43.8309 12.8407 43.6843 12.7453C43.5568 12.6595 43.4121 12.7148 43.2808 12.6995Z" fill="#242121"/>
<path d="M105.01 18.3709C105.01 17.2187 105.026 16.076 105.007 14.9333C104.984 13.4664 104.944 11.9994 104.889 10.5325C104.864 9.88388 104.976 9.25246 105.049 8.61531C105.085 8.29674 105.366 8.13459 105.549 7.91331C106.173 7.15599 106.255 6.92707 107.118 7.81221C107.222 7.91903 107.325 8.0602 107.485 7.86753C107.584 7.74925 107.685 7.82747 107.778 7.88851C108.144 8.13078 108.385 8.47987 108.307 8.91099C108.201 9.50617 108.332 10.0708 108.395 10.6488C108.652 12.9895 108.614 15.3416 108.521 17.686C108.452 19.4143 108.585 21.1197 108.743 22.8309C108.955 25.1257 109.145 27.4244 109.48 29.7059C109.484 29.7326 109.488 29.7612 109.489 29.7898C109.524 30.3888 109.703 30.8505 110.394 30.9783C110.759 31.047 111.081 31.2797 111.374 31.5239C111.652 31.7566 111.844 32.0446 111.88 32.4109C111.907 32.6837 111.875 32.8973 111.551 33.0366C111.018 33.2655 110.71 33.752 110.403 34.225C110.319 34.3548 110.376 34.4692 110.413 34.5837C111.102 36.8213 111.503 39.1143 111.776 41.4358C111.802 41.6686 111.8 41.7887 111.521 41.8269C111.199 41.8727 110.915 42.052 110.675 42.2656C110.333 42.5709 110.009 42.5308 109.653 42.2981C108.42 41.4873 107.938 40.3142 108.037 38.8834C108.068 38.4485 107.974 38.0594 107.837 37.6607C107.772 37.4718 107.706 37.3917 107.521 37.5271C107.455 37.5767 107.375 37.6072 107.304 37.653C105.53 38.8033 103.653 38.706 101.752 38.0784C100.579 37.6931 99.8062 36.8595 99.3417 35.7282C98.8506 34.536 98.6907 33.2731 98.6165 32.0027C98.5936 31.6135 98.3595 31.3407 98.2758 30.9974C98.1159 30.345 98.0454 29.6773 97.956 29.0134C97.5467 25.9555 97.9122 22.972 98.8468 20.0515C99.0771 19.3323 99.3817 18.6417 99.8328 18.0256C100.153 17.5906 100.55 17.3961 101.116 17.3884C102.406 17.3732 103.6 17.6898 104.744 18.2545C104.843 18.3003 104.942 18.3403 105.01 18.3709ZM101.346 26.9589C101.477 29.0478 101.601 30.8867 102.02 32.6875C102.191 33.4238 102.399 34.1468 102.829 34.784C103.166 35.2838 103.617 35.4955 104.23 35.3811C105.416 35.1617 106.092 34.3338 106.67 33.3819C106.731 33.2827 106.678 33.1949 106.655 33.1015C105.901 30.1103 105.677 27.0467 105.382 23.9907C105.267 22.8099 104.712 21.8523 103.885 21.0358C103.665 20.8183 103.383 20.6905 103.086 20.597C102.781 20.4998 102.568 20.5532 102.385 20.8469C102.109 21.2914 101.851 21.7454 101.78 22.2605C101.559 23.901 101.188 25.532 101.346 26.9589Z" fill="#FDC906"/>
<path d="M67.5108 21.5909C67.2062 20.3548 66.9131 19.1797 66.6256 18.0046C66.5647 17.7566 66.4124 17.7871 66.2468 17.8672C65.9841 17.995 65.7252 18.1324 65.4645 18.2678C64.1282 18.9603 62.7881 19.6451 61.4594 20.3529C61.0521 20.5703 60.7113 20.557 60.3421 20.2804C59.9176 19.9637 59.4664 19.6776 59.1143 19.275C58.785 18.8973 58.7907 18.7409 59.1295 18.3785C59.4265 18.0599 59.7672 17.7928 60.1193 17.541C62.3579 15.9405 64.7183 14.5384 67.1643 13.2794C67.3965 13.1592 67.5679 13.0371 67.7201 13.4206C67.8477 13.7372 68.2227 13.8097 68.5482 13.8116C68.9632 13.8155 69.222 14.0329 69.4257 14.3534C69.7722 14.8971 70.012 15.4636 69.8007 16.1256C69.7246 16.3621 69.7588 16.5891 69.8255 16.8238C70.7049 19.937 71.6757 23.0254 72.4695 26.1634C73.0291 28.3686 73.5659 30.5796 73.8133 32.8477C73.9009 33.6547 73.9637 34.4654 73.7962 35.2685C73.5868 36.2643 73.0348 36.5256 72.1592 35.9991C71.788 35.7759 71.6167 35.7969 71.4263 36.1822C71.2855 36.4665 71.0685 36.7126 70.8743 36.9682C70.3794 37.6168 69.7131 37.943 68.906 38.0212C65.0209 38.397 61.4537 35.734 60.6676 31.8939C60.4943 31.0431 60.6657 30.2267 60.7894 29.4026C61.0445 27.7162 61.3947 26.0528 62.04 24.4638C62.2932 23.8419 62.6092 23.2543 63.0013 22.7068C63.9131 21.4345 65.1713 21.1407 66.6275 21.3944C66.9035 21.444 67.1719 21.5146 67.5108 21.5909ZM66.0983 28.258C66.1002 28.258 66.104 28.258 66.106 28.258C66.1535 29.2214 66.1897 30.1828 66.2506 31.1442C66.2716 31.4723 66.0431 31.7337 65.8509 31.7528C65.5634 31.7814 65.5825 31.4418 65.5711 31.2053C65.4987 29.7555 65.4226 28.3038 65.3445 26.854C65.3388 26.7643 65.3769 26.6327 65.257 26.6003C65.1275 26.564 65.1009 26.688 65.0742 26.7796C64.644 28.3095 64.1701 29.8356 64.0996 31.438C64.0768 31.976 63.9835 32.5749 64.2291 33.0442C64.5984 33.7462 65.1313 34.4043 65.887 34.7077C67.0349 35.1655 67.7792 35.1903 68.3236 33.9522C68.3464 33.9007 68.375 33.853 68.3978 33.8015C68.9213 32.6341 69.1897 31.3941 69.4257 30.1465C69.4524 30.0054 69.4295 29.868 69.3933 29.7326C69.0888 28.588 68.788 27.4415 68.4092 26.318C68.2227 25.7628 68.038 25.2058 67.722 24.706C67.6307 24.561 67.507 24.4103 67.3185 24.479C67.1453 24.542 67.2424 24.7232 67.2481 24.8472C67.2842 25.6846 67.3318 26.5202 67.3813 27.3576C67.4004 27.6762 67.1738 27.9261 66.9663 27.9566C66.6884 27.9967 66.7151 27.6628 66.7037 27.4492C66.6599 26.6957 66.6294 25.9422 66.5723 25.1906C66.5609 25.0284 66.6941 24.7194 66.4277 24.7251C66.1935 24.7308 66.0355 24.9998 65.9575 25.2459C65.9384 25.3088 65.9575 25.3851 65.9613 25.4538C66.0089 26.3885 66.0546 27.3233 66.0983 28.258Z" fill="#FCFCFD"/>
<path d="M8.31681 32.3422C8.4767 33.71 8.62898 35.0263 8.78127 36.3425C8.9069 37.4241 9.02682 38.5077 9.16388 39.5874C9.19624 39.8411 9.14865 40.0013 8.9088 40.1253C8.60043 40.2856 8.30348 40.4725 8.01795 40.6728C7.76669 40.8502 7.54778 40.8559 7.29271 40.6804C6.92342 40.4248 6.55985 40.1673 6.27622 39.8163C6.02305 39.5053 5.8898 39.1562 5.86506 38.7442C5.69564 35.9686 5.39679 33.2083 4.702 30.5052C4.62015 30.1828 4.47358 29.8776 4.34223 29.5705C4.2699 29.4045 4.1652 29.2538 4.01292 29.1432C3.38095 28.6854 3.26103 28.0673 3.80924 27.516C4.44312 26.8769 4.64489 26.1749 4.5421 25.2955C4.43741 24.4104 4.4888 23.5062 4.39553 22.6191C4.24515 21.1865 4.57637 19.8149 4.83525 18.4319C5.14552 16.7856 5.4577 15.1394 5.7775 13.4969C5.81557 13.2985 5.76417 13.1516 5.66709 12.9895C5.15885 12.1234 4.66012 11.2517 4.26609 10.3246C4.11762 9.97736 3.99008 9.62446 3.91965 9.25056C3.88158 9.04836 3.86064 8.88239 4.11571 8.78129C4.30416 8.70689 4.35746 8.48752 4.42218 8.30057C4.52497 8.00489 4.98182 7.72066 5.27877 7.76072C5.34539 7.77025 5.37395 7.78933 5.38346 7.85419C5.45009 8.34063 5.84793 8.36734 6.20008 8.4074C6.43231 8.4322 6.56746 8.50469 6.68738 8.7088C8.66325 12.03 10.6677 15.3339 12.6188 18.6723C13.1803 19.6337 13.4316 20.7459 13.7895 21.8008C14.45 23.7427 15.0724 25.6961 15.396 27.7315C15.5559 28.7388 15.3789 29.7059 15.1276 30.6693C15.0248 31.0584 14.785 31.3789 14.4766 31.6269C13.3688 32.5177 12.0896 32.9775 10.6753 33.0805C10.4202 33.0996 10.1823 33.0404 9.94242 32.947C9.43228 32.7409 8.905 32.5578 8.31681 32.3422ZM8.36059 17.9398C8.23305 18.1553 8.22734 18.3709 8.19879 18.575C8.00272 19.9485 7.54207 21.2762 7.7191 22.7107C7.96656 24.7194 8.09219 26.7453 8.27493 28.7636C8.29016 28.9219 8.2597 29.1012 8.42531 29.2214C9.03444 29.6659 9.70258 29.9444 10.4488 30.0703C10.9817 30.1599 11.2787 29.7384 11.6918 29.58C12.3371 29.3339 12.4246 28.8551 12.3237 28.2676C12.3142 28.2123 12.3085 28.1569 12.3009 28.1016C12.0877 26.4973 11.5319 24.9903 10.976 23.4852C10.6715 22.663 10.3326 21.858 10.1156 20.9977C9.8244 19.8302 9.16578 18.8459 8.36059 17.9398Z" fill="#FCFDFD"/>
<path d="M55.117 6.92515C54.6278 7.45165 54.3346 8.02584 54.2375 8.72212C53.9139 11.0322 53.5561 13.3366 53.2268 15.6468C53.0212 17.0908 53.242 18.5196 53.4438 19.9446C53.6512 21.3963 53.9596 22.8308 54.2547 24.2673C54.3175 24.5706 54.426 24.6908 54.7572 24.7232C56.1335 24.8548 57.5002 25.0532 58.8079 25.5397C59.2819 25.7152 59.7311 25.9345 60.1042 26.2874C60.3003 26.4744 60.4526 26.6899 60.5211 26.9532C60.5991 27.2584 60.542 27.4683 60.2451 27.6895C59.5541 28.2046 58.8707 28.3954 58.0008 28.1626C57.0243 27.9013 56.0059 27.7964 54.9437 27.6132C55.1512 28.7158 55.3473 29.765 55.5453 30.8142C56.1411 33.9561 56.7369 37.096 57.3384 40.2378C57.3784 40.4515 57.3422 40.5984 57.1671 40.7472C56.9139 40.9627 56.7426 41.247 56.4475 41.4492C55.8022 41.8917 55.1322 41.8192 54.4412 41.7353C54.3708 41.7258 54.2699 41.7563 54.2623 41.6228C54.1899 40.3542 53.853 39.1276 53.6246 37.8857C52.985 34.412 52.3093 30.9439 51.6659 27.4702C51.5897 27.06 51.4565 26.7434 51.091 26.5202C50.8435 26.3676 50.6418 26.1367 50.3943 25.986C50.006 25.7495 50.0631 25.4614 50.2344 25.1372C50.2534 25.1009 50.2744 25.0608 50.301 25.0303C50.9501 24.315 50.9254 23.5233 50.716 22.6267C50.3448 21.0358 50.1487 19.4105 49.9736 17.7852C49.8099 16.2629 50.0345 14.775 50.261 13.2832C50.5333 11.4882 50.8074 9.6931 51.0586 7.89421C51.1443 7.27615 51.4603 6.76872 51.7477 6.24603C52.2236 5.38188 52.8023 4.59785 53.6474 4.05037C54.5573 3.46092 55.4596 3.35218 56.4114 4.00649C57.1614 4.52346 57.8314 5.111 58.2502 5.91792C58.9983 7.35817 59.6302 8.84611 59.9024 10.4619C59.931 10.6259 59.9481 10.7938 59.9595 10.9617C60.0186 11.8926 60.0224 11.904 59.1544 12.2398C58.9069 12.3351 58.8193 12.4782 58.787 12.7243C58.648 13.762 58.4881 14.7979 58.3435 15.8356C58.3111 16.0664 58.2464 16.2706 58.0465 16.406C57.9627 16.4632 57.9094 16.6196 57.7781 16.5433C57.6563 16.4728 57.6563 16.3392 57.6753 16.2057C57.7495 15.7078 57.8162 15.2099 57.8904 14.712C57.9799 14.1035 58.0789 13.4969 58.1626 12.8884C58.1778 12.7739 58.2902 12.6022 58.0351 12.5793C57.8143 12.5602 57.7933 12.6938 57.7686 12.8616C57.4374 15.1279 57.1023 17.3941 56.7673 19.6604C56.6874 20.1983 56.5827 20.7363 56.5332 21.278C56.4989 21.6596 56.2458 21.5337 56.0497 21.5413C55.7318 21.5527 55.8746 21.3295 55.8936 21.1922C56.32 18.2907 56.7483 15.3892 57.1804 12.4878C57.2185 12.234 57.1975 11.9975 57.1081 11.7514C56.6855 10.5687 56.261 9.38788 55.8708 8.19371C55.7128 7.71681 55.4824 7.30285 55.117 6.92515Z" fill="#FCFCFC"/>
<path d="M81.5532 16.6177C81.6731 15.9482 81.7836 15.2767 82.0729 14.6548C82.2899 14.1874 82.5716 13.7792 83.0837 13.5923C83.3521 13.495 83.5843 13.495 83.7918 13.7487C84.0202 14.0291 84.2848 14.2828 84.5437 14.5365C84.6446 14.6357 84.7093 14.8399 84.9415 14.6682C85.0691 14.5728 85.069 14.7597 85.0767 14.8379C85.1433 15.6868 85.288 16.5262 85.248 17.3846C85.1547 19.3666 85.09 21.3505 85.0329 23.3345C85.0253 23.6168 84.9339 23.7999 84.7131 23.9602C84.4085 24.1814 84.1002 24.4065 83.8337 24.6698C83.5615 24.9369 83.3387 24.9025 83.0361 24.7175C82.0044 24.0861 81.3515 23.2734 81.5323 21.9724C81.597 21.5089 81.4048 21.0892 81.0907 20.7458C80.8261 20.4578 80.5501 20.1812 80.2607 19.9179C79.4194 19.1568 78.6313 18.348 77.9746 17.417C77.9042 17.3159 77.8451 17.1881 77.6872 17.2167C77.5311 17.2454 77.5653 17.3827 77.552 17.4857C77.1466 20.9023 77.0761 24.315 77.7176 27.7143C78.2297 30.4365 79.1852 32.9794 80.7937 35.2552C81.0678 35.6424 81.1306 35.65 81.3914 35.2399C82.0615 34.185 82.5259 33.0271 82.9466 31.8615C83.2074 31.1404 83.8622 30.8829 84.3533 30.4289C84.4637 30.3278 84.5589 30.4346 84.6465 30.4995C85.2099 30.9115 85.7676 31.3312 86.3368 31.7356C86.4929 31.8462 86.5538 31.9626 86.5272 32.1534C86.4739 32.5273 86.4415 32.9012 86.3216 33.2617C85.8971 34.5493 85.4288 35.8198 84.7474 36.9987C84.3685 37.6549 83.9307 38.2692 83.3425 38.7575C82.4288 39.5168 81.4181 39.6064 80.3921 39.0093C79.6535 38.5782 79.0882 37.9621 78.5875 37.2829C77.3141 35.5566 76.4594 33.6165 75.7589 31.6059C74.3864 27.6762 73.5527 23.6416 73.5584 19.462C73.5603 18.0752 73.6935 16.6979 74.1904 15.3835C75.0431 13.1287 76.7792 12.5393 78.8236 13.8116C79.8267 14.4373 80.5786 15.3148 81.2449 16.2744C81.3172 16.3774 81.3876 16.4823 81.4619 16.5815C81.4714 16.5987 81.5056 16.6006 81.5532 16.6177Z" fill="#FCC906"/>
<path d="M29.9789 18.2354C29.9237 18.0924 29.88 17.9588 29.8191 17.8348C29.6915 17.5716 29.6477 17.3312 29.859 17.0718C29.9904 16.9116 29.9961 16.6807 30.0208 16.4709C30.0989 15.7899 30.4777 15.4465 31.1439 15.4847C31.3819 15.498 31.498 15.4179 31.5551 15.1814C31.6978 14.5843 31.8501 13.9891 32.1109 13.4283C32.4098 12.7854 32.6705 12.6614 33.3691 12.7243C33.6204 12.7472 33.8983 12.6957 34.1344 12.6003C34.4484 12.4744 34.4637 12.6156 34.4675 12.856C34.4789 13.5446 34.3571 14.2199 34.2581 14.8952C34.2181 15.168 34.2429 15.2786 34.5512 15.334C35.3621 15.4808 36.1521 15.7136 36.8888 16.097C38.0747 16.7151 38.6762 17.6326 38.621 19.0309C38.5563 20.6524 38.3031 22.1937 37.4332 23.5901C37.1438 24.0556 36.8164 24.4791 36.3862 24.8301C35.9218 25.2078 35.4725 25.6122 35.1166 26.1025C34.991 26.2741 34.9281 26.4058 35.1775 26.5698C36.6584 27.537 38.246 28.2752 39.9306 28.8094C40.1248 28.8704 40.2428 28.859 40.3037 28.6377C40.3513 28.4641 40.4446 28.3038 40.5036 28.1322C40.6083 27.8212 40.8348 27.6591 41.1413 27.6018C41.3735 27.558 41.6095 27.5122 41.8456 27.5007C42.2377 27.4836 42.5746 27.3081 42.9096 27.8651C43.5245 28.8876 44.3525 29.7803 45.0892 30.7284C45.5023 31.2587 45.5023 31.6937 45.0968 32.2049C44.8208 32.5559 44.52 32.8955 44.3659 33.3209C44.2935 33.5174 44.1546 33.5212 44.0061 33.5402C43.2142 33.6471 42.449 33.483 41.6914 33.2846C39.5632 32.7238 37.5759 31.8043 35.6077 30.8448C34.5931 30.3507 33.5938 29.828 32.583 29.3149C32.4707 29.5133 32.6077 29.6697 32.6686 29.8261C33.2359 31.2816 33.8222 32.7295 34.2429 34.2365C34.3628 34.6676 34.3875 35.0091 33.9878 35.3449C33.7099 35.5795 33.5309 35.94 33.3387 36.2624C33.1997 36.4951 33.0208 36.5943 32.7581 36.5905C31.9491 36.5791 31.3723 36.1708 31.123 35.4402C30.6357 34.0133 29.7467 32.739 29.6116 31.1729C29.4821 29.6621 29.4859 28.1589 29.6363 26.6538C29.88 24.2082 30.1141 21.7607 30.6242 19.3495C30.6871 19.05 30.7708 18.7524 30.8412 18.4548C30.8793 18.2946 30.9478 18.1153 30.786 17.9894C30.6242 17.8654 30.4682 17.9779 30.3197 18.0504C30.2074 18.1095 30.0989 18.1706 29.9789 18.2354ZM35.6724 20.9252C35.6724 20.6467 35.6705 20.3663 35.6724 20.0877C35.6724 19.9618 35.6857 19.8436 35.5887 19.7348C35.2441 19.3476 34.8863 18.9756 34.4123 18.7429C34.1534 18.6151 33.8831 18.5655 33.6014 18.6647C33.4795 18.7066 33.3977 18.7658 33.3749 18.9222C33.0931 20.8851 32.8019 22.8442 32.5106 24.8053C32.4954 24.914 32.4383 25.0342 32.5811 25.0971C32.7124 25.1544 32.7886 25.0418 32.8685 24.9751C33.491 24.4352 34.0944 23.8744 34.6807 23.2944C35.345 22.6363 35.8533 21.9305 35.6724 20.9252Z" fill="#FCFCFD"/>
<path d="M26.9066 27.1345C27.0513 26.7644 27.2873 26.7835 27.5824 26.9342C28.2296 27.2604 28.3685 27.7277 27.9802 28.3401C27.6147 28.9181 27.2131 29.477 26.8895 30.0779C26.3241 31.1271 25.4485 31.6345 24.2931 31.7986C21.6491 32.1744 19.3401 31.604 17.6022 29.4541C16.5533 28.155 16.0432 26.608 15.6948 24.9922C15.4569 23.8915 15.5654 22.7927 15.6263 21.694C15.7139 20.103 15.929 18.5311 16.2297 16.9612C16.7722 14.1264 19.5 13.1593 21.6358 13.6648C22.5095 13.8727 23.3451 14.178 24.1446 14.5805C24.6091 14.8132 24.9003 15.2386 25.1954 15.643C26.0615 16.8334 26.7239 18.1439 27.3311 19.4773C27.9155 20.7592 28.4428 22.0659 29.0081 23.3555C29.13 23.634 29.1052 23.8381 28.8939 24.0689C28.6046 24.3875 28.321 24.7252 28.1934 25.1486C28.1325 25.3489 27.9802 25.307 27.8603 25.3222C26.9866 25.4329 26.109 25.4996 25.2296 25.5283C23.3565 25.5893 21.4873 25.5054 19.6256 25.2841C19.0679 25.2173 19.0508 25.2536 19.2849 25.7763C20.1358 27.6667 21.4701 28.9467 23.5926 29.2863C24.1884 29.3816 24.6148 29.271 24.9136 28.7063C25.1344 28.2886 25.4409 27.9166 25.6903 27.5141C25.8426 27.2699 26.0386 27.0887 26.2842 26.9437C26.6725 26.7167 26.6915 26.7148 26.9066 27.1345ZM18.8338 19.2999C18.7481 20.1927 18.6529 21.0835 18.71 21.9782C18.7234 22.1804 18.7862 22.2624 19.0013 22.2853C19.7494 22.3654 20.4955 22.4704 21.2436 22.5657C22.4333 22.7164 23.623 22.8633 24.8127 23.0197C25.024 23.0484 25.2182 23.0197 25.34 22.8519C25.439 22.7183 25.2848 22.602 25.2239 22.4913C24.3083 20.8317 23.387 19.174 22.4638 17.5182C22.4048 17.4114 22.3401 17.2874 22.243 17.2206C21.5958 16.778 20.9257 16.3832 20.1244 16.2801C19.7969 16.2382 19.4867 16.2859 19.1859 16.4156C18.948 16.5186 18.8185 16.6693 18.8242 16.9535C18.8452 17.7376 18.8338 18.5197 18.8338 19.2999Z" fill="#FCFCFC"/>
<path d="M121.24 28.7083C121.405 28.2962 121.622 28.3 121.891 28.4221C122.559 28.7254 122.725 29.2386 122.336 29.849C121.969 30.427 121.567 30.986 121.244 31.5869C120.678 32.636 119.803 33.1473 118.647 33.3113C116.039 33.6814 113.751 33.1282 112.006 31.0317C111.105 29.9501 110.605 28.6625 110.234 27.3176C109.895 26.0872 109.864 24.8434 109.952 23.5787C110.076 21.8065 110.194 20.0382 110.643 18.3118C110.66 18.245 110.683 18.1782 110.696 18.1096C111.163 15.8033 113.647 14.8285 115.415 15.0841C116.519 15.2443 117.549 15.6201 118.539 16.118C118.858 16.2802 119.077 16.5606 119.294 16.8315C120.138 17.8864 120.753 19.0786 121.345 20.2823C122.083 21.7874 122.728 23.3326 123.358 24.8854C123.463 25.1448 123.465 25.3413 123.258 25.5645C122.964 25.8812 122.683 26.2207 122.549 26.6404C122.475 26.8712 122.289 26.8331 122.142 26.8464C121.308 26.9208 120.473 27.0029 119.637 27.0353C117.751 27.1078 115.868 27.0238 113.991 26.7968C113.439 26.7301 113.407 26.7873 113.631 27.2833C114.482 29.1737 115.819 30.4576 117.941 30.799C118.535 30.8944 118.967 30.7838 119.264 30.2172C119.477 29.8109 119.78 29.4541 120.02 29.0612C120.185 28.7903 120.41 28.6014 120.671 28.4298C120.956 28.2447 121.139 28.2562 121.24 28.7083ZM113.184 20.7802C113.144 21.6863 112.973 22.5906 113.068 23.4986C113.089 23.7065 113.156 23.7752 113.365 23.8C114.389 23.9183 115.411 24.0594 116.435 24.1891C117.362 24.3074 118.289 24.418 119.216 24.5382C119.414 24.5649 119.593 24.5191 119.7 24.3646C119.793 24.2292 119.639 24.1128 119.576 24.0003C118.666 22.3521 117.753 20.7058 116.839 19.0596C116.765 18.9279 116.702 18.7887 116.563 18.699C116.022 18.348 115.472 18.0218 114.842 17.8597C114.4 17.7471 113.963 17.7395 113.532 17.936C113.293 18.0466 113.171 18.1954 113.178 18.4796C113.196 19.2446 113.184 20.0115 113.184 20.7802Z" fill="#FCC907"/>
<path d="M90.5551 17.4247C91.0081 17.3274 91.425 17.5296 91.8381 17.789C92.7289 18.348 93.5665 18.9698 94.2994 19.7291C95.6185 21.0949 96.2733 22.7374 96.4123 24.6202C96.4922 25.7056 96.6369 26.7872 96.7739 27.8689C96.989 29.5647 96.3209 30.8505 94.741 31.4991C92.3654 32.4758 90.1972 31.9645 88.2442 30.3984C87.243 29.5953 86.5615 28.5384 86.1084 27.3424C85.8705 26.7128 85.9562 26.049 86.0114 25.3947C86.1637 23.6378 86.3864 21.8961 87.0107 20.2308C87.1782 19.7844 87.3819 19.3571 87.6389 18.9565C88.3108 17.9168 89.2245 17.3255 90.5551 17.4247ZM92.7385 26.5717C92.6756 25.9975 92.6223 25.3565 92.531 24.7213C92.411 23.8953 92.4244 23.0464 92.1579 22.2433C92.0322 21.8618 91.8324 21.4631 91.3927 21.4555C90.991 21.4478 90.8349 21.858 90.7302 22.1804C90.1934 23.8343 89.847 25.5244 89.9555 27.2737C90.0126 28.1951 90.6693 28.8074 91.5773 28.8665C91.6934 28.8742 91.8 28.8761 91.8781 28.7712C92.3349 28.1302 92.7442 27.4683 92.7385 26.5717Z" fill="#FDC906"/>
<path d="M48.074 36.724C47.9883 36.7163 47.8056 36.7163 47.6286 36.682C47.1565 36.5885 46.831 36.3501 46.7092 35.8408C46.2942 34.0991 46.0372 32.3327 45.7936 30.5624C45.5632 28.8894 45.3481 27.2126 45.1235 25.5396C45.1026 25.387 45.0683 25.2382 45.0321 25.0894C44.8837 24.4809 44.8684 24.4752 44.3069 24.7346C44.1432 24.8109 43.9833 24.9006 43.812 24.9578C43.5036 25.0646 43.2257 25.4004 42.8945 25.2707C42.2739 25.0284 41.661 24.7365 41.2308 24.189C41.0709 23.9849 41.0766 23.7522 41.1489 23.5118C41.2879 23.0483 41.5944 22.7087 41.9656 22.4264C43.22 21.4669 44.699 21.0014 46.1743 20.5283C46.258 20.5016 46.3837 20.5093 46.456 20.555C47.0004 20.9003 47.5239 21.278 47.7999 21.8942C47.9008 22.1212 48.0017 22.3615 47.7846 22.5943C47.6723 22.7145 47.7561 22.8613 47.7751 22.9949C48.3253 27.1058 48.8792 31.2148 49.4293 35.3257C49.5112 35.9819 48.8164 36.7507 48.074 36.724Z" fill="#FCFCFC"/>
<path d="M43.2808 12.6995C43.4121 12.7148 43.5568 12.6614 43.6843 12.7434C43.829 12.8388 43.9013 13.1364 44.0746 13.0601C44.4705 12.8846 44.9826 12.8674 45.1748 12.3562C45.2376 12.1883 45.3404 12.0338 45.4261 11.8754C45.4851 11.7686 45.5136 11.595 45.6526 11.6065C45.8201 11.6217 45.8239 11.8144 45.8468 11.9384C45.9724 12.6652 46.098 13.3939 46.1913 14.1264C46.3417 15.3015 46.4578 16.4823 46.612 17.6574C46.6519 17.9626 46.5891 18.1649 46.3112 18.3022C45.98 18.4663 45.7421 18.8878 45.3633 18.8421C44.8531 18.781 44.4001 18.5006 44.0003 18.1553C43.9623 18.121 43.8633 17.7547 43.7395 18.1248C43.7319 18.1458 43.6539 18.0866 43.6253 17.9741C43.513 17.5277 43.3836 17.0851 43.3055 16.633C43.1476 15.7193 42.8849 14.8475 42.4185 14.0425C42.3328 13.8937 42.2472 13.7678 42.4775 13.6419C42.6279 13.5599 42.6545 13.3519 42.6545 13.1898C42.6583 12.7529 42.8868 12.6309 43.2808 12.6995Z" fill="#FBFBFB"/>
<path d="M101.346 26.9589C101.188 25.5321 101.559 23.901 101.782 22.2586C101.852 21.7435 102.111 21.2895 102.387 20.845C102.57 20.5513 102.783 20.4979 103.088 20.5951C103.385 20.6905 103.668 20.8164 103.887 21.0339C104.713 21.8504 105.269 22.808 105.383 23.9888C105.677 27.0448 105.903 30.1084 106.657 33.0996C106.68 33.193 106.733 33.2789 106.672 33.38C106.093 34.3319 105.418 35.1598 104.232 35.3792C103.619 35.4936 103.168 35.2819 102.831 34.7821C102.401 34.1468 102.193 33.4219 102.022 32.6856C101.601 30.8848 101.477 29.0478 101.346 26.9589Z" fill="#242121"/>
<path d="M66.0985 28.2581C66.0547 27.3233 66.009 26.3886 65.9652 25.4539C65.9614 25.3833 65.9424 25.3089 65.9614 25.2459C66.0395 24.9999 66.1974 24.7309 66.4316 24.7252C66.6981 24.7194 66.5629 25.0266 66.5763 25.1906C66.6334 25.9422 66.6619 26.6957 66.7076 27.4492C66.7209 27.6629 66.6943 27.9967 66.9703 27.9567C67.1797 27.9261 67.4043 27.6763 67.3853 27.3577C67.3358 26.5221 67.2882 25.6847 67.252 24.8473C67.2463 24.7233 67.1492 24.542 67.3224 24.4791C67.5109 24.4104 67.6346 24.5611 67.726 24.7061C68.042 25.2059 68.2266 25.7629 68.4132 26.318C68.792 27.4416 69.0927 28.5881 69.3973 29.7327C69.4335 29.8681 69.4582 30.0035 69.4297 30.1466C69.1917 31.3942 68.9252 32.6341 68.4017 33.8016C68.3789 33.8531 68.3504 33.9008 68.3275 33.9523C67.7831 35.1903 67.0388 35.1655 65.891 34.7077C65.1353 34.4063 64.6023 33.7482 64.233 33.0443C63.9855 32.575 64.0788 31.976 64.1036 31.4381C64.174 29.8357 64.6461 28.3096 65.0782 26.7797C65.1029 26.6881 65.1315 26.5641 65.2609 26.6004C65.3789 26.6347 65.3428 26.7644 65.3485 26.8541C65.4265 28.3039 65.5008 29.7555 65.575 31.2053C65.5864 31.4419 65.5674 31.7814 65.8548 31.7528C66.049 31.7337 66.2755 31.4724 66.2546 31.1443C66.1936 30.1829 66.1556 29.2195 66.1099 28.2581C66.1042 28.2562 66.1004 28.2581 66.0985 28.2581Z" fill="#262223"/>
<path d="M8.36061 17.9398C9.16581 18.844 9.82443 19.8302 10.1195 20.9977C10.3365 21.8561 10.6753 22.6611 10.9799 23.4852C11.5357 24.9903 12.0915 26.4973 12.3047 28.1016C12.3123 28.1569 12.3181 28.2123 12.3276 28.2676C12.4285 28.8551 12.3409 29.3339 11.6956 29.58C11.2806 29.7383 10.9856 30.1618 10.4526 30.0703C9.70641 29.9444 9.03637 29.664 8.42914 29.2214C8.26353 29.1012 8.29399 28.9219 8.27876 28.7636C8.09412 26.7453 7.97039 24.7213 7.72293 22.7107C7.5459 21.2743 8.00656 19.9485 8.20262 18.575C8.22737 18.3728 8.23117 18.1553 8.36061 17.9398Z" fill="#252122"/>
<path d="M35.6724 20.9252C35.8532 21.9305 35.345 22.6363 34.6806 23.2925C34.0943 23.8725 33.4909 24.4333 32.8685 24.9731C32.7904 25.0418 32.7124 25.1544 32.581 25.0952C32.4402 25.0323 32.4954 24.9121 32.5106 24.8034C32.7999 22.8423 33.0931 20.8813 33.3748 18.9203C33.3977 18.7639 33.4795 18.7047 33.6013 18.6628C33.8831 18.5636 34.1515 18.6151 34.4122 18.741C34.8862 18.9737 35.2422 19.3457 35.5886 19.7329C35.6857 19.8417 35.6724 19.9618 35.6724 20.0858C35.6705 20.3663 35.6724 20.6467 35.6724 20.9252Z" fill="#262223"/>
<path d="M18.8337 19.2999C18.8337 18.5178 18.8432 17.7356 18.828 16.9554C18.8223 16.6712 18.9498 16.5205 19.1897 16.4175C19.4904 16.2878 19.8007 16.2401 20.1281 16.282C20.9276 16.3851 21.5996 16.7799 22.2468 17.2225C22.3438 17.2893 22.4067 17.4114 22.4676 17.5201C23.3908 19.1759 24.3121 20.8336 25.2277 22.4932C25.2886 22.6039 25.4409 22.7202 25.3438 22.8538C25.2201 23.0217 25.0259 23.0503 24.8165 23.0217C23.6268 22.8652 22.4371 22.7183 21.2474 22.5676C20.4993 22.4723 19.755 22.3673 19.005 22.2872C18.7899 22.2643 18.7271 22.1823 18.7138 21.9801C18.6548 21.0854 18.7481 20.1927 18.8337 19.2999Z" fill="#252122"/>
<path d="M113.184 20.7802C113.184 20.0133 113.196 19.2446 113.178 18.4777C113.173 18.1935 113.293 18.0447 113.533 17.934C113.961 17.7375 114.399 17.7452 114.842 17.8577C115.472 18.0199 116.022 18.3461 116.563 18.6971C116.702 18.7867 116.765 18.926 116.839 19.0576C117.753 20.7039 118.668 22.3482 119.576 23.9983C119.639 24.1109 119.793 24.2272 119.7 24.3627C119.593 24.5172 119.414 24.563 119.217 24.5363C118.289 24.4161 117.362 24.3055 116.435 24.1872C115.411 24.0575 114.389 23.9163 113.365 23.798C113.156 23.7732 113.091 23.7046 113.068 23.4966C112.973 22.5886 113.144 21.6863 113.184 20.7802Z" fill="#252121"/>
<path d="M92.7384 26.5717C92.7441 27.4683 92.3368 28.1283 91.8742 28.7692C91.7981 28.8761 91.6915 28.8723 91.5734 28.8646C90.6655 28.8055 90.0087 28.1931 89.9516 27.2718C89.8431 25.5225 90.1896 23.8323 90.7264 22.1784C90.8311 21.856 90.9852 21.4459 91.3888 21.4535C91.8285 21.4631 92.0284 21.8599 92.154 22.2414C92.4205 23.0445 92.4072 23.8934 92.5271 24.7194C92.6223 25.3584 92.6737 25.9975 92.7384 26.5717Z" fill="#262222"/>
</svg>
