<svg xmlns="http://www.w3.org/2000/svg" version="1.1" x="0" y="0" viewBox="0 0 90 90" xml:space="preserve"><path class="st0" d="M89.9 45c0-5.5-5.8-9.8-14.2-12.7 4-8 4.9-15.1 1.1-19.1 -1.7-1.7-4-2.5-6.8-2.5 -3.4 0-7.6 1.2-12.2 3.5C54.9 5.8 50.6 0 45.1 0c-5.5 0-9.8 5.8-12.7 14.2 -4.6-2.3-8.8-3.5-12.2-3.5 -2.9 0-5.2 0.8-6.8 2.5 -2.5 2.5-4.4 7.9 1 19.1C5.8 35.2 0.1 39.5 0.1 45s5.8 9.8 14.2 12.7c-4 8-4.9 15.1-1.1 19.1 1.7 1.7 4 2.5 6.8 2.5 3.5 0 7.6-1.2 12.2-3.5C35.1 84.2 39.4 90 44.9 90s9.8-5.8 12.7-14.2c4.6 2.3 8.8 3.5 12.2 3.5 2.9 0 5.2-0.8 6.8-2.5 2.5-2.5 4.4-7.9-1-19.1l0 0C84.2 54.8 89.9 50.5 89.9 45zM69.9 16.1c1.4 0 2.4 0.4 3.1 1 1.8 1.8 1.1 7-2.4 13.8 -3-0.7-6.2-1.4-9.6-1.9 -0.5-3.4-1.1-6.5-1.8-9.5C63.7 17.2 67.4 16.1 69.9 16.1zM56.9 45c0 1.7 0 3.2-0.1 4.9 -1.1 1.2-2.2 2.4-3.4 3.5 -1.2 1.2-2.4 2.3-3.5 3.4 -1.6 0.1-3.2 0.1-4.9 0.1 -1.7 0-3.2 0-4.9-0.1 -1.2-1.1-2.4-2.2-3.5-3.4 -1.2-1.2-2.3-2.4-3.4-3.5 0-1.6-0.1-3.2-0.1-4.9 0-1.7 0-3.2 0.1-4.9 1.1-1.2 2.2-2.3 3.4-3.5 1.2-1.2 2.4-2.3 3.5-3.4 1.6 0 3.2-0.1 4.9-0.1 1.7 0 3.2 0 4.9 0.1 1.2 1.1 2.4 2.2 3.5 3.4 1.2 1.2 2.3 2.4 3.4 3.5C56.8 41.8 56.9 43.3 56.9 45zM52 28.1c-1-0.8-1.9-1.7-2.8-2.4 1.8-1.3 3.6-2.5 5.3-3.6 0.5 1.9 0.8 4.1 1.2 6.2C54.5 28.2 53.3 28.2 52 28.1zM38 28.1c-1.2 0.1-2.4 0.1-3.6 0.2 0.4-2.3 0.7-4.3 1.2-6.2 1.7 1.1 3.5 2.3 5.3 3.6C39.8 26.4 38.8 27.2 38 28.1zM28 38c-0.8 1-1.6 1.8-2.4 2.8 -1.3-1.8-2.5-3.6-3.6-5.3 1.9-0.5 4.1-0.8 6.2-1.2C28.3 35.5 28.1 36.7 28 38zM28 52.1c0.1 1.2 0.1 2.4 0.2 3.7 -2.3-0.4-4.3-0.7-6.2-1.2 1.1-1.7 2.3-3.5 3.6-5.3C26.5 50.2 27.2 51.1 28 52.1zM38 62c1 0.8 1.9 1.7 2.8 2.4 -1.8 1.3-3.6 2.5-5.3 3.6 -0.5-1.9-0.8-4-1.2-6.2C35.5 61.8 36.7 61.9 38 62zM52 62c1.2-0.1 2.4-0.1 3.6-0.2 -0.4 2.3-0.7 4.3-1.2 6.2 -1.7-1.1-3.5-2.2-5.3-3.6C50.2 63.6 51.2 62.8 52 62zM62 52.1c0.8-1 1.6-1.8 2.4-2.8 1.3 1.8 2.5 3.6 3.6 5.3 -1.9 0.5-4.1 0.8-6.2 1.2C61.7 54.5 61.9 53.3 62 52.1zM62 38c-0.1-1.3-0.2-2.5-0.2-3.7 2.3 0.4 4.3 0.7 6.2 1.2 -1.1 1.7-2.3 3.5-3.6 5.3C63.5 39.8 62.8 38.9 62 38zM45.1 5.4c2.5 0 5.6 4.1 8 11.4 -2.6 1.6-5.3 3.4-8 5.5 -2.8-2-5.4-4-8-5.5C39.3 9.5 42.4 5.4 45.1 5.4zM19 30c-3.6-7.4-3.4-11.5-2-13 0.6-0.6 1.7-1 3.1-1 2.5 0 6.2 1.1 10.7 3.4 -0.7 3-1.4 6.2-1.8 9.5 -3.4 0.5-6.5 1.1-9.5 1.8C19.3 30.6 19.1 30.2 19 30zM5.3 45c0-2.5 4.1-5.6 11.4-8 1.6 2.6 3.4 5.4 5.5 8 -2 2.6-3.8 5.4-5.4 8C9.4 50.8 5.3 47.6 5.3 45zM17 73.1c-1.8-1.8-1.1-7 2.4-13.8 3 0.7 6.2 1.4 9.6 1.8 0.5 3.4 1.1 6.5 1.8 9.5C23.8 74.2 18.8 74.8 17 73.1zM45.1 84.7c-2.5 0-5.6-4.1-8-11.4 2.6-1.6 5.3-3.4 8-5.5 2.8 2 5.4 4 8 5.5C50.7 80.6 47.6 84.7 45.1 84.7zM71 60.1c3.6 7.4 3.4 11.5 2 13 -1.8 1.8-6.8 1.1-13.8-2.4 0.7-3 1.3-6.1 1.8-9.5 3.4-0.5 6.5-1.1 9.5-1.8C70.7 59.5 70.9 59.8 71 60.1zM73.3 53c-1.6-2.6-3.4-5.4-5.5-8 2-2.6 3.8-5.4 5.4-8 7.3 2.4 11.4 5.5 11.4 8C84.7 47.6 80.6 50.8 73.3 53z"/></svg>